<mxfile host="app.diagrams.net" modified="2024-02-07T14:15:37.576Z" agent="Mozilla/5.0 (Windows NT 10.0; Win64; x64) AppleWebKit/537.36 (KHTML, like Gecko) Chrome/120.0.0.0 Safari/537.36" version="23.1.1" etag="cVvk5foPu4zfcGWo4ZZm" type="github">
  <diagram name="PÃ¡gina-1" id="xK2uwxEqdYXYNxIzqc5r">
    <mxGraphModel>
      <root>
        <mxCell id="0" />
        <mxCell id="1" parent="0" />
      </root>
    </mxGraphModel>
  </diagram>
</mxfile>
